<?xml version="1.0" encoding="UTF-8"?> <!-- Generator: Adobe Illustrator 19.0.0, SVG Export Plug-In . SVG Version: 6.00 Build 0) --> <svg xmlns="http://www.w3.org/2000/svg" xmlns:xlink="http://www.w3.org/1999/xlink" version="1.1" id="Capa_1" x="0px" y="0px" viewBox="0 0 512.001 512.001" style="enable-background:new 0 0 512.001 512.001;" xml:space="preserve"> <g> <path style="fill:#7FDD36;" d="M494.494,322.019l-29.557,29.567c-33.016,33.016-86.551,33.016-119.567,0l-16.186-16.196 c-0.197-0.197-0.395-0.395-0.592-0.582L205.305,211.521L51.724,57.93c-4.976-4.976-4.976-13.038,0-18.015L86.413,5.226 c4.976-4.976,13.038-4.976,18.015,0l153.591,153.591l53.618,53.618l68.682,68.682c8.238,8.238,17.599,14.971,27.676,20.092 c24.03,12.228,52.153,15.313,78.905,7.823C494.608,306.871,500.156,316.357,494.494,322.019z"></path> <path style="fill:#7FDD36;" d="M464.335,446.313l-29.557,29.557c-33.016,33.016-86.551,33.016-119.567,0L128.083,288.743 L21.565,182.214c-4.976-4.966-4.976-13.038,0-18.004l34.689-34.699c4.976-4.976,13.038-4.976,18.015,0l275.891,275.891 c20.747,20.747,48.621,31.957,77.17,31.957c9.807,0,19.698-1.319,29.411-4.041C464.449,431.155,469.997,440.651,464.335,446.313z"></path> </g> <g> <path style="fill:#75C92D;" d="M486.902,309.028c7.708-2.157,13.255,7.332,7.596,12.991l-29.564,29.563 c-33.016,33.016-86.551,33.016-119.567,0l-16.186-16.196c29.079,29.079,67.29-22.648,78.811-34.18 c24.03,12.228,52.153,15.313,78.905,7.823L486.902,309.028z"></path> <path style="fill:#75C92D;" d="M456.748,433.312c7.708-2.157,13.255,7.332,7.596,12.991l-29.564,29.563 c-33.016,33.016-86.551,33.016-119.567,0l-16.186-16.196c29.079,29.079,67.29-22.648,78.811-34.18 c24.03,12.228,52.153,15.313,78.905,7.823L456.748,433.312z"></path> </g> <path style="fill:#EAEAE4;" d="M50.387,512.001c-1.994,0-3.988-0.76-5.509-2.282c-3.043-3.043-3.043-7.977,0-11.019L448.826,94.752 c3.043-3.043,7.977-3.043,11.019,0c3.043,3.043,3.043,7.977,0,11.019L55.896,509.718C54.375,511.24,52.382,512.001,50.387,512.001z"></path> <path style="fill:#CECECC;" d="M50.072,503.894L454.02,99.946c2.104-2.103,5.109-2.75,7.771-1.946 c-0.359-1.188-1.007-2.309-1.947-3.249c-3.043-3.043-7.977-3.043-11.019,0L44.878,498.699c-3.043,3.043-3.043,7.977,0,11.019 c0.939,0.939,2.059,1.586,3.248,1.946C47.321,509.003,47.969,505.997,50.072,503.894z"></path> <path style="fill:#EAEAE4;" d="M7.792,469.406c-1.994,0-3.988-0.76-5.509-2.282c-3.043-3.043-3.043-7.977,0-11.019L406.231,52.157 c3.043-3.043,7.977-3.043,11.019,0c3.043,3.043,3.043,7.977,0,11.019L13.301,467.123C11.781,468.645,9.787,469.406,7.792,469.406z"></path> <g> <rect x="194.753" y="273.223" transform="matrix(0.7071 0.7071 -0.7071 0.7071 278.877 -52.283)" style="fill:#75C92D;" width="15.594" height="74.541"></rect> <rect x="242.502" y="225.496" transform="matrix(-0.7072 0.707 -0.707 -0.7072 642.5688 200.4783)" style="fill:#75C92D;" width="74.54" height="15.594"></rect> <rect x="152.158" y="230.63" transform="matrix(0.7071 0.7071 -0.7071 0.7071 236.2836 -34.6389)" style="fill:#75C92D;" width="15.594" height="74.541"></rect> <rect x="199.907" y="182.903" transform="matrix(-0.7072 0.707 -0.707 -0.7072 539.7363 157.8781)" style="fill:#75C92D;" width="74.54" height="15.594"></rect> </g> <path style="fill:#CECECC;" d="M7.477,461.299L411.425,57.351c2.104-2.103,5.109-2.75,7.771-1.946 c-0.359-1.189-1.007-2.309-1.947-3.249c-3.043-3.043-7.977-3.043-11.019,0L2.283,456.104c-3.043,3.043-3.043,7.977,0,11.019 c0.939,0.939,2.059,1.586,3.248,1.946C4.726,466.408,5.374,463.402,7.477,461.299z"></path> <g> <path style="fill:#616D70;" d="M100.445,483.109c-1.994,0-3.988-0.76-5.509-2.282l-21.817-21.817 c-3.043-3.043-3.043-7.977,0-11.019c3.043-3.043,7.977-3.043,11.019,0l21.817,21.817c3.043,3.043,3.043,7.977,0,11.019 C104.433,482.347,102.439,483.109,100.445,483.109z"></path> <path style="fill:#616D70;" d="M57.85,440.513c-1.994,0-3.988-0.76-5.509-2.282l-21.817-21.817c-3.043-3.043-3.043-7.977,0-11.019 c3.043-3.043,7.977-3.043,11.019,0l21.817,21.817c3.043,3.043,3.043,7.977,0,11.019C61.838,439.752,59.844,440.513,57.85,440.513z"></path> </g> <path style="fill:#E07E24;" d="M431.343,112.229l11.024,11.024c3.447,3.447,9.036,3.447,12.484,0l54.563-54.563 c3.447-3.447,3.447-9.036,0-12.484l-11.024-11.024c-3.447-3.447-9.036-3.447-12.484,0l-54.563,54.563 C427.896,103.192,427.896,108.781,431.343,112.229z"></path> <path style="fill:#CC6917;" d="M441.732,110.133l54.563-54.564c3.447-3.447,9.036-3.447,12.484,0L498.391,45.18 c-3.447-3.447-9.036-3.447-12.484,0l-54.563,54.564c-3.447,3.447-3.447,9.036,0,12.483l10.389,10.389 C438.285,119.171,438.285,113.581,441.732,110.133z"></path> <path style="fill:#E07E24;" d="M388.748,69.634l11.024,11.024c3.447,3.447,9.036,3.447,12.484,0l54.563-54.563 c3.447-3.447,3.447-9.036,0-12.484L455.796,2.586c-3.447-3.447-9.036-3.447-12.484,0l-54.563,54.563 C385.301,60.597,385.301,66.186,388.748,69.634z"></path> <path style="fill:#CC6917;" d="M399.137,67.539L453.7,12.974c3.447-3.447,9.036-3.447,12.484,0L455.796,2.585 c-3.447-3.447-9.036-3.447-12.484,0l-54.563,54.564c-3.447,3.447-3.447,9.036,0,12.483l10.389,10.389 C395.69,76.576,395.69,70.986,399.137,67.539z"></path> <g> </g> <g> </g> <g> </g> <g> </g> <g> </g> <g> </g> <g> </g> <g> </g> <g> </g> <g> </g> <g> </g> <g> </g> <g> </g> <g> </g> <g> </g> </svg> 